<svg id="outputsvg" version="1.0" xmlns="http://www.w3.org/2000/svg" style="transform: none; transform-origin: 50% 50% 0px; cursor: move; display: inline; transition: none 0s ease 0s;" width="520" height="520" viewBox="0 0 9600 9600" preserveAspectRatio="xMidYMid meet" title="cozinhe-me.svg (34KB)"><g id="layer101" fill="#fdfdfd" stroke="none">  <path d="M4680 7093 c-8 -3 -22 -7 -30 -10 -8 -3 -32 -6 -54 -7 -21 -1 -44 -9 -50 -17 -6 -8 -19 -13 -29 -11 -9 2 -33 -6 -52 -18 -19 -12 -39 -19 -44 -16 -5 3 -14 0 -20 -8 -6 -7 -31 -21 -56 -31 -25 -9 -43 -21 -40 -26 4 -5 -1 -6 -9 -3 -8 3 -30 -6 -48 -20 -19 -14 -51 -33 -73 -43 -22 -10 -59 -31 -82 -46 -24 -15 -47 -27 -53 -27 -5 0 -19 -9 -30 -20 -11 -11 -27 -20 -35 -20 -8 0 -15 -5 -15 -11 0 -5 -4 -7 -10 -4 -5 3 -10 1 -10 -4 0 -6 5 -11 12 -11 6 0 8 -3 5 -6 -4 -4 -13 -1 -21 5 -18 15 -40 5 -30 -12 4 -7 4 -9 0 -5 -11 9 -108 -41 -101 -53 3 -5 -1 -6 -10 -3 -9 4 -25 -2 -38 -13 -12 -11 -53 -35 -92 -53 -38 -18 -87 -46 -109 -62 -21 -15 -45 -28 -52 -28 -21 0 -84 -41 -78 -51 3 -5 -1 -6 -9 -3 -8 3 -18 0 -23 -7 -4 -7 -3 -10 3 -6 5 3 10 0 10 -8 0 -11 -4 -12 -14 -4 -9 9 -19 7 -38 -5 -13 -9 -31 -16 -39 -16 -8 0 -21 -9 -29 -20 -8 -11 -16 -17 -19 -15 -9 9 -58 -17 -58 -31 0 -7 -6 -11 -13 -8 -8 3 -20 -2 -27 -11 -7 -8 -19 -15 -26 -15 -8 0 -33 -12 -57 -27 -56 -36 -95 -59 -136 -78 -27 -13 -31 -19 -20 -27 10 -7 8 -8 -9 -3 -16 5 -31 -1 -53 -19 -17 -14 -35 -26 -40 -26 -6 0 -7 -6 -3 -12 5 -10 4 -10 -6 -1 -11 10 -20 8 -46 -12 -17 -13 -78 -48 -135 -78 -140 -71 -133 -66 -117 -85 11 -15 11 -15 -2 -5 -13 10 -25 8 -61 -10 -25 -12 -59 -32 -76 -44 -17 -12 -42 -27 -57 -33 -15 -5 -25 -14 -22 -19 4 -5 -2 -7 -11 -5 -10 2 -25 0 -33 -5 -13 -9 -12 -12 5 -26 20 -16 20 -16 -2 -5 -18 8 -35 4 -88 -20 -36 -17 -63 -35 -60 -40 3 -5 0 -7 -8 -5 -7 3 -33 -10 -58 -28 -24 -19 -53 -37 -65 -41 -28 -9 -65 -49 -67 -74 0 -11 -6 -18 -13 -15 -16 6 -37 -54 -21 -61 7 -3 2 -3 -10 -1 -18 5 -24 -2 -41 -47 -29 -78 -33 -104 -39 -295 l-6 -173 34 -7 c19 -4 44 -7 56 -7 12 1 19 -4 17 -10 -4 -12 51 -53 66 -49 5 2 6 -5 3 -14 -4 -10 -2 -14 5 -9 6 3 14 1 18 -5 5 -8 3 -9 -6 -4 -10 6 -11 3 -6 -16 18 -57 19 -128 2 -154 -9 -14 -14 -30 -11 -35 3 -6 1 -10 -5 -10 -6 0 -9 -4 -6 -9 3 -5 -2 -8 -11 -7 -9 0 -22 -9 -28 -21 -7 -13 -15 -20 -18 -16 -4 3 -7 1 -7 -5 0 -7 -3 -11 -7 -10 -5 1 -21 -4 -38 -11 -16 -6 -36 -14 -42 -16 -30 -10 -8 -335 27 -410 10 -22 21 -50 25 -62 3 -12 22 -37 41 -56 20 -19 41 -45 47 -57 7 -13 19 -27 27 -31 8 -4 39 -21 67 -38 29 -17 53 -28 53 -24 0 4 7 -2 15 -13 8 -12 36 -31 62 -43 26 -12 66 -33 88 -46 37 -23 78 -36 45 -15 -8 5 -10 10 -5 10 6 0 22 -13 35 -30 14 -16 32 -29 40 -30 8 0 30 -9 48 -20 18 -11 38 -17 44 -14 7 4 8 2 4 -4 -4 -6 5 -19 20 -28 22 -15 29 -16 47 -4 20 12 21 12 9 -3 -11 -13 -10 -18 12 -32 14 -10 33 -15 41 -11 9 3 13 2 10 -4 -9 -14 8 -12 25 3 12 10 12 9 1 -5 -13 -18 -11 -19 86 -67 23 -12 45 -26 49 -32 3 -6 38 -26 76 -44 38 -18 75 -39 83 -45 8 -7 21 -10 30 -6 8 3 14 0 12 -7 -1 -7 6 -11 15 -11 10 1 15 -2 12 -7 -3 -5 4 -9 16 -9 13 0 19 4 14 12 -4 7 -3 8 5 4 6 -4 9 -12 5 -17 -8 -13 27 -40 44 -34 7 3 11 1 8 -4 -6 -9 36 -41 54 -41 6 0 26 -11 44 -25 18 -14 38 -25 45 -25 6 0 25 -10 41 -21 18 -14 35 -19 46 -15 10 4 15 4 11 0 -12 -12 55 -55 77 -49 12 3 15 2 8 -1 -16 -7 -6 -24 15 -24 8 0 28 -11 45 -25 16 -14 36 -25 45 -25 8 0 34 -14 58 -31 24 -17 55 -32 69 -32 14 0 23 -3 20 -8 -7 -12 44 -31 58 -23 6 4 8 3 5 -3 -9 -14 51 -56 69 -49 10 4 12 2 8 -6 -5 -8 -2 -9 10 -5 10 4 15 3 11 -3 -3 -6 4 -14 17 -19 13 -5 39 -20 59 -33 19 -14 60 -37 90 -52 72 -35 176 -94 229 -129 23 -16 48 -26 56 -23 8 3 13 2 9 -3 -3 -5 22 -23 54 -39 44 -22 62 -27 71 -18 8 8 14 7 23 -4 14 -18 93 -61 99 -54 3 2 31 -5 64 -17 48 -17 88 -22 214 -25 166 -3 248 9 318 46 20 11 41 20 46 20 11 0 197 92 241 119 17 10 29 24 27 31 -1 6 3 8 9 5 19 -12 115 45 101 60 -4 5 -2 5 5 1 16 -9 86 21 78 34 -3 5 0 7 9 4 8 -3 24 0 36 6 16 9 19 14 10 25 -9 11 -7 12 10 8 12 -3 29 2 41 13 12 11 24 18 28 18 13 -3 31 9 25 17 -3 5 1 6 9 3 8 -3 35 9 60 25 25 17 52 31 60 31 9 0 23 8 33 17 9 10 36 28 58 39 23 12 40 26 39 32 -1 5 6 8 17 5 23 -6 113 44 105 57 -3 6 1 7 10 4 8 -4 32 4 53 18 61 39 76 48 100 58 14 6 20 15 16 22 -4 7 -3 8 5 4 17 -11 51 3 51 20 0 8 5 12 10 9 13 -8 71 40 62 51 -4 5 1 2 11 -5 11 -9 17 -10 17 -2 0 6 8 11 19 11 10 0 36 12 57 26 21 15 58 35 82 45 28 12 41 23 36 30 -5 8 -3 9 5 4 8 -4 24 1 39 12 15 11 35 22 45 26 11 4 15 12 11 18 -4 7 -3 9 3 6 5 -4 39 9 74 28 35 18 88 45 117 59 30 14 51 30 47 36 -3 5 0 7 7 5 8 -3 23 3 35 14 11 11 23 17 27 14 5 -6 42 15 67 39 8 7 37 24 64 36 28 13 57 28 65 33 8 5 25 13 38 19 12 5 22 14 22 20 0 6 4 8 10 5 14 -9 52 14 44 27 -4 7 -3 8 4 4 14 -9 55 12 47 24 -3 4 4 6 15 3 12 -3 22 1 26 11 3 9 10 13 15 10 5 -3 9 0 9 5 0 6 7 11 16 11 8 0 12 4 9 10 -3 5 0 7 8 4 16 -6 92 42 120 76 10 12 16 28 13 35 -3 9 0 12 8 9 15 -6 41 40 32 55 -4 6 -3 11 1 11 13 0 43 77 37 94 -3 8 -1 17 5 21 7 4 11 69 11 185 0 167 -1 180 -19 190 -11 5 -28 10 -39 10 -11 0 -26 7 -33 16 -7 9 -23 20 -35 24 -31 12 -74 101 -74 152 0 47 27 115 53 137 21 17 22 35 1 27 -9 -3 -12 -2 -9 5 4 6 13 8 21 5 7 -3 16 -1 18 3 3 5 19 11 36 14 16 4 41 14 55 23 l25 16 0 194 c0 126 -4 195 -11 199 -6 4 -8 13 -5 20 8 21 -14 89 -34 106 -11 9 -16 19 -13 23 4 3 -2 6 -13 7 -10 0 -14 3 -7 5 18 8 -26 77 -44 70 -8 -4 -11 -1 -7 5 4 6 0 15 -7 20 -23 14 -32 10 -18 -8 13 -16 12 -17 -3 -4 -10 7 -15 17 -13 22 7 11 -30 30 -40 21 -5 -4 -5 -1 -1 6 5 8 -2 17 -21 25 -15 7 -40 20 -55 31 -16 10 -35 15 -45 12 -10 -4 -14 -4 -11 0 10 9 -32 40 -86 64 -26 11 -62 31 -80 45 -18 14 -40 25 -49 25 -9 0 -18 4 -22 9 -3 6 -19 17 -37 25 -25 13 -34 14 -47 3 -14 -10 -14 -10 -3 5 12 15 9 19 -18 33 -17 9 -36 13 -42 9 -7 -5 -8 -3 -3 6 6 10 4 12 -9 7 -10 -4 -15 -3 -11 3 6 9 -31 29 -62 34 -7 1 -21 10 -32 20 -11 10 -25 15 -32 10 -8 -4 -10 -3 -5 4 9 14 -69 53 -92 45 -14 -4 -15 -3 -2 6 12 8 8 13 -22 25 -20 9 -40 20 -43 26 -4 6 -14 10 -23 9 -31 -3 -42 1 -40 14 2 6 -5 11 -14 11 -10 -1 -15 2 -12 7 3 5 -14 19 -38 30 -24 11 -61 32 -83 45 -22 13 -71 40 -110 59 -88 45 -149 80 -198 113 -34 23 -41 24 -60 12 -20 -12 -21 -12 -9 3 12 14 9 19 -20 37 -18 11 -39 18 -45 15 -7 -2 -13 0 -13 6 0 5 -10 14 -22 19 -13 6 -40 21 -60 35 -22 14 -40 21 -43 15 -3 -6 -12 -10 -18 -10 -8 0 -7 3 2 9 11 7 8 11 -10 16 -13 4 -38 19 -55 32 -18 13 -36 22 -41 21 -4 -2 -19 7 -33 20 -13 12 -30 20 -38 17 -7 -2 -10 0 -7 5 4 6 -9 17 -29 25 -19 8 -38 19 -41 25 -5 8 -12 7 -23 -2 -9 -7 -13 -8 -9 -2 8 14 -210 137 -227 127 -6 -3 -8 -3 -4 2 12 12 -28 36 -49 29 -14 -5 -15 -4 -4 4 12 8 6 14 -30 29 -24 9 -48 16 -52 15 -5 -1 -6 2 -2 7 7 12 -32 34 -45 26 -6 -3 -10 -2 -10 4 0 12 -55 43 -62 35 -3 -3 -21 4 -39 15 -19 11 -55 22 -81 25 -25 3 -57 10 -70 15 -24 9 -280 12 -308 4z m870 -268 c14 -8 21 -14 15 -14 -5 0 -21 6 -35 14 -14 8 -20 14 -15 14 6 0 21 -6 35 -14z m255 -155 c3 -5 4 -10 1 -10 -3 0 -8 5 -11 10 -3 6 -4 10 -1 10 3 0 8 -4 11 -10z m-25 -4 c0 -3 -5 -8 -12 -12 -7 -4 -8 -3 -4 4 7 12 16 16 16 8z m-2053 -63 c-4 -3 -10 -3 -14 0 -3 4 0 7 7 7 7 0 10 -3 7 -7z m2558 -191 c-3 -3 -11 0 -18 7 -9 10 -8 11 6 5 10 -3 15 -9 12 -12z m-38 1 c-4 -3 -10 -3 -14 0 -3 4 0 7 7 7 7 0 10 -3 7 -7z m120 -70 c-4 -3 -10 -3 -14 0 -3 4 0 7 7 7 7 0 10 -3 7 -7z m-3387 -167 c0 -3 -5 -8 -12 -12 -7 -4 -8 -3 -4 4 7 12 16 16 16 8z m-133 -83 c-4 -3 -10 -3 -14 0 -3 4 0 7 7 7 7 0 10 -3 7 -7z m-147 -47 c0 -3 -5 -8 -12 -12 -7 -4 -8 -3 -4 4 7 12 16 16 16 8z m4315 -36 c3 -6 -1 -7 -9 -4 -18 7 -21 14 -7 14 6 0 13 -4 16 -10z m45 -64 c0 -3 -5 -8 -12 -12 -7 -4 -8 -3 -4 4 7 12 16 16 16 8z m-2923 -63 c-4 -3 -10 -3 -14 0 -3 4 0 7 7 7 7 0 10 -3 7 -7z m-470 -10 c-4 -3 -10 -3 -14 0 -3 4 0 7 7 7 7 0 10 -3 7 -7z m530 0 c-4 -3 -10 -3 -14 0 -3 4 0 7 7 7 7 0 10 -3 7 -7z m365 -47 c4 -8 2 -32 -5 -53 -10 -33 -16 -38 -42 -38 -41 0 -39 -26 3 -37 44 -12 40 -28 -7 -28 -46 0 -66 20 -63 63 3 37 18 49 50 42 34 -8 41 23 11 46 -21 15 -26 16 -40 3 -15 -13 -29 -10 -29 8 0 4 9 17 19 27 19 19 20 19 57 0 21 -10 42 -25 46 -33z m705 47 c-4 -3 -10 -3 -14 0 -3 4 0 7 7 7 7 0 10 -3 7 -7z m975 -47 c4 -8 2 -31 -4 -52 -11 -33 -17 -38 -42 -39 -16 0 -31 -6 -33 -12 -3 -7 0 -13 7 -13 6 0 8 5 3 13 -4 6 7 1 24 -13 35 -27 41 -40 19 -40 -8 0 -21 -3 -30 -6 -10 -4 -27 5 -46 26 l-30 32 20 28 c17 24 78 51 64 29 -3 -5 0 -9 5 -9 18 0 12 26 -9 45 -16 14 -23 15 -34 6 -15 -13 -36 -7 -36 10 0 5 9 18 19 28 19 19 20 19 57 0 21 -10 42 -25 46 -33z m1005 47 c-4 -3 -10 -3 -14 0 -3 4 0 7 7 7 7 0 10 -3 7 -7z m-4842 -13 c3 -5 4 -10 1 -10 -3 0 -8 5 -11 10 -3 6 -4 10 -1 10 3 0 8 -4 11 -10z m1972 -19 c11 -14 12 -13 13 9 l0 25 19 -24 c15 -19 19 -41 18 -93 0 -37 -2 -66 -5 -63 -3 2 -16 -5 -30 -15 -45 -36 -132 -16 -116 25 8 19 25 19 49 1 15 -10 23 -11 37 -2 25 15 22 26 -8 26 -16 0 -39 13 -60 34 -31 31 -39 34 -35 13 1 -5 -3 -5 -9 -2 -8 5 -6 13 4 24 19 21 21 35 4 25 -7 -4 -10 -4 -6 0 3 4 8 7 10 5 2 -1 18 8 37 19 35 21 57 19 78 -7z m493 3 c0 -19 16 -18 24 1 3 8 10 15 17 15 8 0 10 -25 7 -81 -3 -71 -6 -83 -27 -100 -34 -28 -105 -21 -109 9 -3 17 2 22 20 22 13 0 29 -5 35 -11 12 -12 33 -4 33 12 0 9 -88 55 -100 52 -3 -1 -3 19 0 45 5 43 8 47 35 52 39 8 65 1 65 -16z m300 -54 c4 -64 8 -74 28 -81 22 -8 22 -7 16 41 -5 37 -3 56 9 74 9 14 12 26 7 28 -6 2 19 4 55 6 56 2 65 0 75 -18 19 -36 -19 -58 -39 -22 -8 13 -12 14 -22 5 -10 -10 -16 -10 -27 -1 -12 10 -14 9 -11 -6 2 -10 20 -23 41 -31 26 -9 36 -9 31 -1 -4 6 1 5 10 -3 9 -7 17 -10 17 -7 0 4 9 2 20 -4 17 -9 20 -18 15 -48 -6 -35 -6 -36 10 -17 12 15 15 34 11 75 -5 59 0 76 23 82 12 2 15 -10 15 -56 1 -54 3 -59 24 -62 16 -3 21 0 16 8 -4 7 -3 9 1 5 5 -4 10 -14 11 -22 2 -12 -2 -12 -17 -5 -15 8 -19 7 -19 -4 0 -16 40 -31 62 -24 9 3 13 27 13 79 0 68 2 74 21 77 20 3 21 -1 16 -47 -3 -35 0 -56 9 -68 8 -9 9 -14 3 -10 -7 4 -14 -3 -17 -19 -3 -18 -1 -22 6 -15 6 6 19 11 28 11 21 0 28 25 23 82 -1 24 1 50 6 58 8 13 11 13 26 -1 13 -14 14 -21 4 -38 -6 -12 -10 -41 -8 -64 3 -37 6 -42 26 -39 29 3 25 -18 -6 -34 -20 -10 -20 -11 -4 -28 14 -14 14 -17 2 -14 -10 2 -16 -6 -18 -24 -4 -38 -22 -35 -22 3 0 17 -9 44 -21 60 -19 28 -21 28 -45 12 -18 -11 -38 -14 -74 -10 -29 4 -52 2 -56 -4 -4 -6 -11 -5 -21 3 -8 6 -22 13 -31 14 -21 3 -44 -15 -36 -28 4 -6 -3 -5 -14 1 -13 7 -23 7 -27 1 -8 -12 -54 5 -70 27 -20 27 -62 -12 -70 -64 -3 -24 -4 -46 -1 -51 6 -10 -42 -8 -51 3 -5 4 -2 5 5 1 10 -6 12 5 10 51 -3 50 -6 58 -23 58 -11 0 -24 -2 -30 -6 -37 -22 -40 -18 -38 56 2 68 1 73 -23 86 -23 12 -28 11 -41 -6 -11 -15 -13 -35 -8 -81 7 -64 -3 -86 -25 -59 -8 10 -11 37 -8 79 5 86 23 107 90 104 27 -1 52 -7 56 -12 3 -5 4 -34 3 -64 -2 -43 0 -52 11 -46 10 6 10 4 -1 -9 -18 -22 -12 -27 17 -16 22 8 24 14 22 77 -3 84 -3 85 13 80 7 -3 14 -32 17 -78z m884 51 c8 -13 11 -12 16 9 l6 25 13 -23 c7 -13 14 -31 16 -40 2 -9 4 -21 6 -27 6 -22 -23 -95 -44 -110 -12 -8 -39 -15 -60 -15 -30 0 -39 5 -46 23 -8 20 -5 22 28 27 l36 5 -41 38 c-48 44 -48 68 -1 97 32 20 56 16 71 -9z m-2616 -47 c3 -63 17 -84 58 -84 12 0 27 -6 33 -14 10 -12 6 -15 -18 -21 -16 -3 -39 -2 -50 4 -11 6 -26 8 -34 5 -11 -4 -15 10 -19 73 -6 84 -2 106 16 100 6 -2 12 -30 14 -63z m226 51 c22 -17 14 -30 -24 -39 -14 -3 -19 -3 -12 0 6 3 10 10 6 15 -9 15 -44 10 -62 -8 -16 -16 -16 -16 0 -11 9 4 22 1 28 -7 21 -25 50 -28 73 -8 21 18 21 18 7 -1 -13 -18 -13 -19 1 -14 9 4 22 1 29 -5 10 -9 12 -8 7 5 -3 9 0 22 8 28 8 6 15 21 17 33 3 18 11 22 64 25 47 3 63 0 74 -13 12 -15 12 -19 -3 -30 -13 -9 -14 -14 -6 -17 9 -3 7 -7 -5 -11 -9 -4 -15 -3 -12 2 8 12 -42 44 -54 36 -6 -4 -8 -10 -5 -15 3 -4 -4 -6 -15 -3 -31 8 -28 -56 5 -87 21 -20 27 -21 42 -9 11 9 14 10 9 2 -9 -15 -5 -16 27 -4 19 7 24 6 24 -7 1 -31 -18 -43 -58 -38 -42 5 -99 42 -99 64 0 12 -3 12 -16 1 -8 -7 -13 -21 -10 -32 2 -10 2 -16 -1 -13 -3 3 -15 -1 -27 -9 -11 -8 -37 -15 -58 -15 -29 0 -41 6 -58 30 -12 17 -25 28 -29 26 -4 -3 -8 13 -9 34 -3 37 17 84 43 102 17 13 79 8 99 -7z m395 -14 c12 -12 16 -21 10 -21 -5 0 -7 -4 -4 -10 4 -7 -3 -7 -20 0 -15 6 -31 8 -36 4 -5 -3 -8 0 -7 8 4 19 -46 22 -62 4 -10 -14 -9 -16 8 -16 12 0 23 -4 26 -9 6 -8 55 -22 88 -25 10 0 18 -4 18 -8 1 -50 -3 -59 -31 -78 -25 -18 -38 -21 -75 -15 -27 4 -44 11 -44 20 0 7 -7 16 -16 19 -12 5 -15 16 -11 54 7 66 11 82 28 93 23 16 105 3 128 -20z m79 -64 c2 -71 0 -87 -12 -87 -18 0 -26 23 -31 90 -5 51 10 93 30 87 5 -2 11 -43 13 -90z m84 15 c-3 -66 -1 -72 16 -72 20 0 36 -23 25 -34 -4 -3 -14 -6 -24 -6 -25 0 -31 -14 -19 -46 13 -34 -9 -65 -33 -46 -8 7 -18 8 -23 4 -5 -4 -1 2 9 14 22 27 22 50 -3 81 -25 32 -25 45 -2 41 15 -3 17 7 20 70 2 63 5 73 20 70 14 -3 17 -14 14 -76z m45 71 c-4 -3 -10 -3 -14 0 -3 4 0 7 7 7 7 0 10 -3 7 -7z m1497 -88 c0 -71 -3 -90 -15 -90 -15 0 -26 59 -28 143 -1 39 1 43 21 40 21 -3 22 -8 22 -93z m170 84 c3 -3 3 -15 -1 -27 -6 -25 -25 -29 -43 -7 -24 28 -57 16 -51 -18 1 -5 -3 -6 -9 -2 -21 13 -20 -25 2 -59 19 -31 27 -35 52 -32 16 3 39 0 50 -6 19 -10 19 -11 1 -24 -29 -21 -98 -18 -120 6 -10 11 -22 17 -26 14 -5 -3 -6 1 -3 9 3 8 1 17 -3 20 -5 3 -8 21 -6 39 2 18 4 41 4 50 0 10 5 21 11 24 7 4 6 9 -2 14 -7 4 22 7 64 6 41 -1 78 -4 80 -7z m411 -19 c3 -5 4 -10 1 -10 -3 0 -8 5 -11 10 -3 6 -4 10 -1 10 3 0 8 -4 11 -10z m-3148 -7 c-4 -3 -10 -3 -14 0 -3 4 0 7 7 7 7 0 10 -3 7 -7z m103 3 c0 -3 -5 -8 -12 -12 -7 -4 -8 -3 -4 4 7 12 16 16 16 8z m3180 -10 c0 -3 -5 -8 -12 -12 -7 -4 -8 -3 -4 4 7 12 16 16 16 8z m-3203 -22 c13 -8 27 -13 31 -10 4 2 5 -16 3 -41 -2 -35 0 -44 9 -38 9 5 11 4 6 -4 -4 -6 -11 -9 -16 -6 -10 6 -42 -24 -36 -33 5 -8 2 -8 -159 -11 -66 -1 -130 0 -142 3 -13 2 -25 1 -28 -5 -4 -5 -12 -9 -18 -9 -8 0 -7 3 2 9 13 9 -6 16 -72 26 -12 2 -41 10 -65 17 -35 10 -47 10 -65 -1 -20 -13 -21 -13 -9 2 11 13 10 17 -7 26 -27 15 -41 14 -62 -5 -22 -20 -49 -12 -56 16 -3 11 -10 17 -17 13 -6 -3 -7 -2 -3 3 5 5 9 7 10 4 1 -2 13 3 26 12 16 11 30 14 40 9 9 -5 34 -12 55 -15 22 -4 45 -11 52 -17 7 -5 23 -11 36 -13 13 -1 37 -8 53 -15 17 -7 44 -13 60 -14 17 -2 36 -6 43 -10 7 -5 21 -6 31 -2 11 3 22 1 26 -5 8 -13 152 -13 160 1 4 6 14 8 22 5 9 -4 22 -1 30 5 7 7 16 9 19 6 8 -8 44 30 44 47 0 17 -17 29 -45 33 -18 2 -17 0 5 -19 14 -12 18 -19 9 -15 -9 3 -21 1 -27 -5 -16 -16 -42 8 -42 37 0 13 -5 25 -11 27 -6 2 11 5 37 6 29 1 57 -4 71 -14z m1740 9 c-4 -3 -10 -3 -14 0 -3 4 0 7 7 7 7 0 10 -3 7 -7z m1422 -3 c21 -11 34 -47 20 -56 -5 -3 -7 -9 -5 -13 3 -3 -5 -7 -16 -7 -14 0 -25 10 -32 28 -12 32 -35 33 -46 2 -10 -26 -2 -39 30 -48 20 -6 22 -5 10 4 -13 10 -13 11 0 7 8 -2 14 -12 12 -22 -2 -11 1 -15 10 -12 7 2 12 10 10 17 -2 10 0 11 11 2 8 -7 17 -8 21 -4 4 4 6 0 4 -8 -5 -22 199 -20 231 2 12 9 31 14 42 11 10 -3 26 0 34 7 8 6 19 9 24 6 5 -4 14 1 19 10 6 11 11 13 16 5 5 -8 14 -6 31 5 12 8 56 18 95 21 63 5 75 4 86 -12 11 -14 11 -20 -1 -31 -18 -19 -64 -18 -71 1 -4 8 -10 15 -16 15 -5 0 -6 -5 -2 -12 4 -7 3 -8 -5 -4 -21 13 -64 -3 -57 -21 6 -13 4 -14 -10 -3 -9 8 -18 10 -22 4 -4 -5 -25 -11 -47 -13 -22 -1 -47 -7 -56 -12 -21 -11 -115 -21 -214 -23 -44 -1 -89 -5 -100 -10 -13 -5 -16 -5 -7 2 10 7 2 11 -30 17 -24 5 -48 8 -55 8 -7 0 -11 4 -10 11 1 6 -3 10 -9 9 -10 -2 -4 76 10 107 7 18 69 24 95 10z m-2392 -17 c-4 -3 -10 -3 -14 0 -3 4 0 7 7 7 7 0 10 -3 7 -7z m1850 0 c-4 -3 -10 -3 -14 0 -3 4 0 7 7 7 7 0 10 -3 7 -7z m-2047 -17 c0 -3 -5 -8 -12 -12 -7 -4 -8 -3 -4 4 7 12 16 16 16 8z m2084 -15 c3 -5 -2 -15 -12 -22 -15 -12 -16 -12 -5 2 7 9 10 19 6 22 -3 4 -4 7 0 7 3 0 8 -4 11 -9z m-1679 -11 c-3 -5 -1 -10 6 -10 7 0 10 -3 6 -6 -9 -9 -28 6 -22 17 4 5 8 9 11 9 3 0 2 -4 -1 -10z m-1318 -7 c-4 -3 -10 -3 -14 0 -3 4 0 7 7 7 7 0 10 -3 7 -7z m540 -10 c-4 -3 -7 0 -7 7 0 7 3 10 7 7 3 -4 3 -10 0 -14z m-227 3 c0 -3 -5 -8 -12 -12 -7 -4 -8 -3 -4 4 7 12 16 16 16 8z m1077 -3 c-4 -3 -10 -3 -14 0 -3 4 0 7 7 7 7 0 10 -3 7 -7z m3190 -20 c-4 -3 -10 -3 -14 0 -3 4 0 7 7 7 7 0 10 -3 7 -7z m-4927 -7 c0 -3 -5 -8 -12 -12 -7 -4 -8 -3 -4 4 7 12 16 16 16 8z m877 -43 c-4 -3 -10 -3 -14 0 -3 4 0 7 7 7 7 0 10 -3 7 -7z m1390 -10 c-4 -3 -10 -3 -14 0 -3 4 0 7 7 7 7 0 10 -3 7 -7z m1170 1 c-3 -3 -12 -4 -19 -1 -8 3 -5 6 6 6 11 1 17 -2 13 -5z m-2810 -11 c-4 -3 -10 -3 -14 0 -3 4 0 7 7 7 7 0 10 -3 7 -7z m1710 0 c-4 -3 -10 -3 -14 0 -3 4 0 7 7 7 7 0 10 -3 7 -7z m833 -19 c0 -14 -21 -19 -33 -7 -9 9 13 34 24 27 5 -3 9 -12 9 -20z m-3775 6 c3 -5 4 -10 1 -10 -3 0 -8 5 -11 10 -3 6 -4 10 -1 10 3 0 8 -4 11 -10z m2155 0 c0 -19 -5 -25 -22 -27 -12 -2 -18 4 -18 17 0 13 7 20 20 20 11 0 20 -4 20 -10z m3475 0 c3 -5 4 -10 1 -10 -3 0 -8 5 -11 10 -3 6 -4 10 -1 10 3 0 8 -4 11 -10z m-2458 -77 c-4 -3 -7 0 -7 7 0 7 3 10 7 7 3 -4 3 -10 0 -14z m788 -43 c3 -6 -1 -7 -9 -4 -18 7 -21 14 -7 14 6 0 13 -4 16 -10z m31 -45 c55 -42 67 -140 19 -159 -9 -3 -14 -9 -11 -14 2 -4 -3 -8 -12 -9 -9 -1 -32 -5 -50 -9 -20 -4 -38 -2 -47 6 -8 6 -19 9 -25 5 -6 -4 -10 -3 -9 2 4 23 -3 33 -23 33 -14 0 -18 3 -11 8 6 4 11 23 11 43 0 64 38 112 80 102 13 -3 22 -1 22 6 0 18 21 13 56 -14z m-4069 -2 c-4 -3 -7 0 -7 7 0 7 3 10 7 7 3 -4 3 -10 0 -14z m1763 -16 c8 -4 41 -8 73 -11 89 -7 154 -32 159 -61 3 -13 1 -22 -3 -19 -5 3 -9 0 -9 -5 0 -6 -8 -11 -17 -11 -15 0 -16 -2 -3 -10 9 -6 10 -10 3 -10 -6 0 -15 5 -18 11 -5 7 -14 6 -28 -4 -12 -8 -46 -20 -75 -26 -28 -7 -54 -17 -57 -22 -3 -4 -12 -6 -19 -3 -7 3 -23 -3 -35 -13 -27 -22 -37 -81 -23 -132 6 -20 22 -77 36 -127 37 -133 45 -151 57 -134 6 11 7 6 3 -15 -4 -21 2 -44 19 -76 14 -25 28 -60 32 -77 6 -31 19 -46 40 -47 6 -1 9 -6 7 -13 -4 -20 28 -110 44 -123 8 -6 14 -19 14 -29 0 -9 9 -29 20 -43 11 -14 20 -31 20 -39 0 -7 7 -24 16 -36 11 -17 14 -34 9 -59 -6 -32 -33 -74 -42 -64 -2 2 -14 0 -26 -4 -59 -17 -239 -23 -305 -9 -31 6 -33 8 -31 50 2 23 7 40 11 38 5 -3 25 2 44 11 19 9 39 13 45 10 16 -11 66 15 85 42 15 24 15 27 -5 53 -11 15 -23 40 -27 54 -3 15 -13 26 -23 26 -14 0 -14 2 -1 10 12 8 12 14 -3 45 -11 22 -22 33 -29 29 -6 -4 -8 -3 -5 3 8 12 -12 83 -30 104 -7 9 -10 19 -6 22 3 4 1 7 -6 7 -7 0 -10 4 -6 9 3 5 1 12 -5 16 -6 4 -8 10 -5 14 4 7 -39 137 -64 196 -5 11 -21 67 -36 125 -15 58 -31 110 -37 117 -5 7 -7 17 -4 22 4 6 1 19 -5 29 -10 16 -8 29 14 77 15 31 24 61 21 67 -4 6 -2 8 4 4 5 -3 12 -1 14 5 2 6 21 13 43 15 21 2 42 7 46 11 10 10 86 9 109 0z m1025 -15 c18 4 21 1 18 -13 -3 -11 -2 -27 3 -36 4 -10 6 -41 5 -70 -2 -29 1 -58 5 -64 7 -13 12 -89 13 -201 0 -32 3 -64 8 -70 4 -7 9 -42 10 -78 0 -36 4 -103 7 -150 3 -47 6 -109 6 -139 0 -29 4 -59 9 -65 6 -7 9 -69 8 -145 l-2 -133 -29 -23 -30 -24 -28 20 c-15 11 -33 17 -39 13 -8 -4 -9 -3 -5 4 4 7 4 12 -1 12 -4 0 -7 51 -5 112 2 62 3 121 3 131 -1 87 -4 134 -10 142 -3 6 -6 17 -7 25 -1 8 -2 25 -3 38 0 12 -4 22 -9 22 -9 0 -58 -130 -67 -177 -4 -17 -12 -37 -20 -43 -13 -11 -30 -58 -26 -74 1 -5 -5 -16 -14 -26 -8 -9 -12 -20 -8 -23 3 -4 -1 -15 -9 -24 -8 -10 -22 -35 -32 -55 -9 -21 -21 -38 -27 -38 -6 0 -8 -4 -5 -9 3 -4 -6 -6 -19 -3 -16 3 -25 0 -25 -9 0 -8 -5 -6 -13 6 -8 10 -18 16 -23 12 -5 -3 -10 9 -10 26 -2 49 -14 265 -19 327 -2 30 -6 105 -9 165 -3 61 -11 201 -17 312 -9 155 -9 212 -1 242 7 21 9 47 6 57 -4 14 -3 15 3 6 8 -10 12 -10 23 3 19 23 67 19 85 -9 16 -24 21 -155 24 -564 1 -120 4 -152 14 -146 8 5 7 2 -2 -9 -8 -10 -11 -20 -7 -24 9 -9 29 13 31 34 0 10 5 25 9 32 5 8 10 21 11 30 1 9 4 27 8 41 24 96 46 215 51 270 14 197 20 237 43 287 14 29 33 59 44 66 10 8 16 17 11 22 -4 4 4 2 17 -5 13 -6 33 -10 46 -8z m254 -172 c2 -222 5 -240 42 -276 25 -24 32 -26 54 -16 26 12 34 32 13 32 -6 0 -4 6 7 13 10 8 15 19 12 24 -7 10 -8 217 -2 281 1 17 3 38 4 46 1 16 61 56 83 56 8 0 23 -6 34 -14 18 -13 20 -33 26 -263 4 -136 7 -280 7 -319 0 -40 4 -75 9 -78 5 -3 7 -31 5 -61 -3 -34 0 -61 6 -69 7 -8 11 -31 11 -52 0 -40 3 -83 16 -186 10 -88 -25 -148 -87 -148 -37 0 -58 27 -52 65 3 18 1 35 -5 39 -5 3 -7 25 -5 50 3 25 1 46 -5 50 -6 3 -8 21 -5 40 3 19 1 36 -6 40 -6 4 -8 19 -5 35 4 17 1 32 -5 36 -7 4 -9 19 -5 40 3 19 1 35 -5 39 -6 4 -8 18 -5 31 3 12 1 26 -5 29 -6 4 -11 16 -11 27 0 10 -5 19 -11 19 -5 0 -8 3 -5 8 7 12 -17 38 -41 44 -15 4 -28 -1 -43 -17 -19 -20 -20 -27 -11 -96 14 -104 16 -332 2 -357 -6 -11 -11 -26 -11 -33 0 -26 -33 -49 -70 -49 -58 0 -68 20 -72 130 -6 212 4 970 13 975 5 4 9 15 9 26 0 23 42 44 87 44 l31 0 1 -185z m1283 171 c7 -6 19 -250 23 -451 2 -138 7 -225 12 -205 3 11 9 25 14 31 5 6 7 18 3 27 -3 8 -1 18 5 21 6 4 8 13 5 20 -3 8 0 17 5 21 6 3 9 11 5 16 -3 5 0 16 6 24 6 8 9 23 5 34 -3 10 -1 22 5 26 6 4 9 14 6 22 -4 9 -2 21 3 27 12 16 24 103 14 109 -11 7 -10 88 1 105 4 7 5 20 2 29 -4 10 4 27 21 45 45 47 122 32 124 -25 2 -40 8 -117 14 -165 3 -26 8 -72 11 -102 3 -30 9 -71 14 -90 5 -19 14 -65 20 -102 6 -37 15 -80 21 -95 l11 -28 14 40 c28 77 32 128 20 250 -5 44 -10 112 -12 150 -2 39 -5 87 -7 109 -6 63 15 108 59 128 44 19 70 11 84 -27 5 -12 11 -137 14 -276 4 -140 9 -349 12 -465 4 -176 2 -222 -12 -285 -9 -41 -17 -79 -17 -86 0 -7 -4 -10 -8 -8 -4 3 -28 -4 -54 -15 -31 -13 -52 -17 -63 -11 -27 14 -55 49 -48 60 4 5 2 12 -2 15 -5 3 -9 25 -9 50 -1 24 -9 60 -18 79 -16 34 -23 65 -30 137 -2 19 -5 35 -6 35 -1 0 -3 11 -5 25 -2 14 -10 66 -18 115 -8 50 -15 99 -15 110 -1 18 -2 18 -17 -3 -8 -12 -12 -27 -9 -32 4 -6 2 -17 -5 -25 -8 -10 -8 -15 0 -20 8 -5 7 -10 -3 -18 -18 -15 -28 -55 -15 -63 5 -4 3 -13 -7 -24 -9 -10 -17 -33 -19 -51 -2 -19 -8 -47 -14 -62 -7 -16 -12 -32 -12 -36 0 -19 -45 -118 -63 -138 -10 -12 -16 -26 -13 -32 4 -5 -3 -12 -14 -16 -11 -4 -18 -10 -15 -14 2 -5 -4 -16 -15 -26 -11 -10 -17 -22 -13 -28 3 -5 1 -7 -5 -3 -6 3 -13 2 -17 -4 -8 -13 -87 -51 -93 -45 -3 3 1 5 9 5 10 1 8 5 -6 16 -20 15 -20 27 -20 577 0 544 1 564 20 592 11 17 19 32 18 35 -2 8 91 -1 99 -9z m1028 -8 c10 10 11 9 6 -1 -4 -7 -2 -19 4 -27 10 -11 10 -15 1 -15 -7 0 -9 -4 -6 -10 3 -5 0 -7 -8 -4 -16 6 -41 -21 -33 -35 10 -15 -12 -23 -33 -11 -14 7 -22 7 -26 -1 -4 -6 -23 -9 -42 -7 l-36 3 -2 -174 c-3 -158 -1 -175 16 -192 13 -13 31 -18 59 -17 39 1 80 -22 80 -45 0 -5 8 -16 18 -23 16 -12 16 -12 -3 -11 -13 1 -20 -4 -19 -15 1 -14 -3 -15 -28 -6 -21 7 -36 7 -51 0 -12 -6 -33 -12 -47 -14 -24 -3 -25 -7 -32 -88 -3 -47 -6 -145 -7 -218 l-1 -132 27 -11 c17 -6 47 -7 78 -2 68 10 78 10 91 -1 16 -15 -16 -86 -38 -86 -9 0 -19 -4 -22 -9 -3 -5 -58 -10 -121 -10 -75 -1 -127 -7 -149 -16 -40 -17 -58 -19 -36 -5 13 9 13 11 0 20 -17 11 -19 135 -5 585 4 149 8 325 10 392 1 68 4 126 8 129 3 3 3 13 0 22 -4 9 -2 13 5 8 6 -3 13 2 16 11 3 10 16 18 28 19 13 0 73 2 135 4 77 2 110 7 106 14 -3 6 5 1 18 -11 20 -18 28 -20 39 -10z m-4100 7 c3 -1 10 -3 17 -4 22 -2 104 -78 115 -105 5 -14 12 -48 14 -76 6 -81 5 -675 -2 -686 -3 -6 -3 -21 0 -34 3 -13 1 -27 -4 -30 -6 -4 -8 -15 -5 -25 3 -10 2 -21 -4 -24 -5 -3 -12 -25 -16 -49 -9 -51 -73 -136 -116 -154 -35 -14 -94 -11 -129 7 -14 7 -41 28 -62 47 -22 22 -41 32 -49 28 -8 -5 -10 -4 -5 3 4 6 2 19 -3 29 -17 30 -39 86 -45 114 -20 93 -27 341 -13 539 7 106 8 116 27 225 6 33 12 68 13 77 1 9 5 14 10 11 5 -3 11 4 14 16 3 11 16 27 30 36 16 11 22 22 19 32 -5 12 -3 13 6 5 9 -7 22 -5 45 6 27 14 119 22 143 12z m2506 -1 c3 -6 19 -9 35 -7 15 3 26 1 23 -3 -2 -4 0 -10 6 -14 15 -9 12 -25 -4 -25 -8 0 -23 -12 -34 -27 -10 -14 -28 -27 -38 -28 -10 0 -28 -6 -39 -12 -13 -8 -25 -8 -38 -1 -10 5 -22 7 -25 3 -9 -9 -13 -280 -6 -323 4 -22 11 -31 20 -28 9 3 11 0 7 -11 -5 -13 -2 -15 15 -11 12 4 20 2 16 -3 -3 -5 8 -9 24 -9 17 0 40 -9 53 -19 20 -16 22 -23 13 -47 -8 -24 -15 -28 -37 -26 -15 2 -37 -4 -48 -11 -11 -8 -29 -13 -39 -10 -20 5 -31 -17 -30 -63 1 -16 -2 -103 -5 -193 -7 -194 -4 -203 73 -195 72 8 103 6 118 -7 19 -16 18 -20 -12 -53 -16 -17 -23 -31 -16 -35 5 -3 -51 -7 -126 -9 -101 -3 -143 -7 -160 -19 -13 -8 -25 -13 -27 -11 -35 40 -40 148 -28 543 3 94 7 252 8 353 1 100 5 185 9 189 3 3 6 19 6 34 0 15 9 37 19 50 18 22 29 25 133 30 62 3 116 6 120 7 4 1 10 -3 14 -9z m1121 -6 c-4 -3 -7 0 -7 7 0 7 3 10 7 7 3 -4 3 -10 0 -14z m138 -3 c3 -5 4 -10 1 -10 -3 0 -8 5 -11 10 -3 6 -4 10 -1 10 3 0 8 -4 11 -10z m-1548 -17 c-4 -3 -7 0 -7 7 0 7 3 10 7 7 3 -4 3 -10 0 -14z m380 10 c-4 -3 -10 -3 -14 0 -3 4 0 7 7 7 7 0 10 -3 7 -7z m40 -10 c-4 -3 -7 0 -7 7 0 7 3 10 7 7 3 -4 3 -10 0 -14z m-3194 -5 c12 -7 37 -29 56 -48 19 -19 31 -29 26 -21 -5 9 -4 12 3 7 6 -4 8 -14 5 -23 -4 -9 -2 -14 3 -11 5 4 10 -4 12 -15 6 -49 8 -256 3 -312 l-6 -60 -46 -5 c-36 -4 -46 -3 -42 7 3 7 0 13 -7 13 -6 0 -8 4 -5 10 3 5 2 18 -4 27 -5 10 -12 52 -15 93 -13 168 -21 210 -39 210 -26 0 -36 -59 -44 -260 -14 -405 1 -632 42 -616 9 3 12 0 8 -10 -6 -16 5 -18 26 -5 7 5 11 13 7 19 -3 6 -2 12 3 14 6 1 11 34 12 72 4 110 24 134 88 102 33 -18 50 -68 47 -146 -3 -65 -52 -169 -93 -195 -29 -19 -113 -27 -130 -13 -7 5 -18 8 -25 6 -16 -6 -54 28 -80 69 -11 18 -24 31 -29 28 -5 -4 -6 2 -2 11 3 10 2 15 -3 12 -5 -4 -10 8 -10 25 -1 18 -4 46 -7 62 -3 17 -8 134 -11 260 -3 127 -8 268 -11 315 -10 168 -12 231 -4 236 14 8 59 96 53 105 -3 5 3 6 12 2 13 -5 16 -2 12 8 -4 10 1 15 15 16 11 1 25 7 30 12 15 15 122 14 150 -1z m1546 -12 c8 -10 13 -138 17 -432 2 -231 6 -467 7 -526 2 -106 2 -108 -25 -134 -23 -21 -34 -24 -59 -19 -24 6 -30 4 -24 -5 5 -9 4 -11 -4 -6 -6 4 -9 12 -6 17 4 5 1 9 -5 9 -6 0 -9 4 -6 9 3 5 0 26 -7 47 -8 22 -15 64 -16 94 -1 30 -6 96 -10 145 -9 104 -7 419 4 582 8 127 8 128 23 166 7 16 12 32 12 36 0 8 47 28 71 30 9 1 22 -5 28 -13z m2448 -23 c-4 -3 -7 0 -7 7 0 7 3 10 7 7 3 -4 3 -10 0 -14z m-4217 -19 c0 -8 -19 -13 -24 -6 -3 5 1 9 9 9 8 0 15 -2 15 -3z m-25 -24 c3 -5 4 -10 1 -10 -3 0 -8 5 -11 10 -3 6 -4 10 -1 10 3 0 8 -4 11 -10z m-18 -27 c-4 -3 -7 0 -7 7 0 7 3 10 7 7 3 -4 3 -10 0 -14z m3640 -30 c-4 -3 -10 -3 -14 0 -3 4 0 7 7 7 7 0 10 -3 7 -7z m-2220 -40 c-4 -3 -7 0 -7 7 0 7 3 10 7 7 3 -4 3 -10 0 -14z m-112 -3 c3 -5 4 -10 1 -10 -3 0 -8 5 -11 10 -3 6 -4 10 -1 10 3 0 8 -4 11 -10z m2332 3 c-4 -3 -10 -3 -14 0 -3 4 0 7 7 7 7 0 10 -3 7 -7z m-276 -290 c13 -15 12 -15 -8 -4 -24 12 -29 21 -14 21 5 0 15 -7 22 -17z m1556 -20 c-4 -3 -7 0 -7 7 0 7 3 10 7 7 3 -4 3 -10 0 -14z m13 -17 c0 -3 -5 -8 -12 -12 -7 -4 -8 -3 -4 4 7 12 16 16 16 8z m-1560 -66 c0 -5 -5 -10 -11 -10 -5 0 -7 5 -4 10 3 6 8 10 11 10 2 0 4 -4 4 -10z m-3717 -125 c-3 -9 -8 -14 -10 -11 -3 3 -2 9 2 15 9 16 15 13 8 -4z m2634 -82 c-4 -3 -7 0 -7 7 0 7 3 10 7 7 3 -4 3 -10 0 -14z m-2007 -7 c0 -3 -5 -8 -12 -12 -7 -4 -8 -3 -4 4 7 12 16 16 16 8z m-23 -43 c-4 -3 -7 0 -7 7 0 7 3 10 7 7 3 -4 3 -10 0 -14z m1940 -110 c-4 -3 -7 0 -7 7 0 7 3 10 7 7 3 -4 3 -10 0 -14z m-1680 -40 c-4 -3 -7 0 -7 7 0 7 3 10 7 7 3 -4 3 -10 0 -14z m1673 3 c0 -3 -4 -8 -10 -11 -5 -3 -10 -1 -10 4 0 6 5 11 10 11 6 0 10 -2 10 -4z m30 0 c0 -3 -5 -8 -12 -12 -7 -4 -8 -3 -4 4 7 12 16 16 16 8z m1000 -20 c0 -3 -5 -8 -12 -12 -7 -4 -8 -3 -4 4 7 12 16 16 16 8z m1715 -6 c3 -5 4 -10 1 -10 -3 0 -8 5 -11 10 -3 6 -4 10 -1 10 3 0 8 -4 11 -10z m-3328 -137 c-4 -3 -7 0 -7 7 0 7 3 10 7 7 3 -4 3 -10 0 -14z m73 3 c0 -3 -5 -8 -12 -12 -7 -4 -8 -3 -4 4 7 12 16 16 16 8z m1250 -30 c0 -3 -5 -8 -12 -12 -7 -4 -8 -3 -4 4 7 12 16 16 16 8z m-2113 -23 c-4 -3 -10 -3 -14 0 -3 4 0 7 7 7 7 0 10 -3 7 -7z m3790 -20 c-4 -3 -10 -3 -14 0 -3 4 0 7 7 7 7 0 10 -3 7 -7z m-2416 -122 c-6 -4 11 -24 39 -46 28 -22 50 -45 50 -51 0 -18 60 -65 72 -58 6 4 8 -1 3 -15 -5 -15 -1 -23 12 -28 24 -9 58 -45 58 -62 0 -8 6 -16 14 -19 10 -3 12 0 8 12 -4 9 -2 15 6 13 7 -1 11 6 11 15 -1 10 4 14 12 11 8 -3 14 1 14 11 0 9 7 16 15 16 8 0 15 7 15 15 0 22 -4 30 -13 27 -5 -1 -6 2 -2 8 5 8 11 7 21 -1 11 -9 19 -8 34 6 11 10 20 24 20 32 0 7 7 16 16 20 8 3 13 12 10 19 -3 8 0 11 11 7 12 -5 14 -1 8 18 -5 18 -4 21 4 9 6 -8 11 -10 11 -5 0 6 9 16 20 22 16 11 25 9 55 -8 29 -18 35 -27 35 -56 0 -29 -9 -42 -56 -85 -33 -31 -53 -56 -50 -65 3 -8 1 -11 -5 -8 -14 9 -41 -15 -35 -31 3 -7 0 -11 -7 -8 -7 2 -30 -14 -52 -36 l-39 -40 35 -34 c30 -29 42 -34 82 -34 36 0 54 5 72 22 26 25 34 42 13 30 -8 -4 -10 -3 -5 2 5 5 12 9 15 9 13 0 32 16 28 24 -4 6 16 11 52 10 58 0 65 -1 52 -9 -9 -6 -1 -19 30 -46 24 -22 47 -38 52 -36 5 1 7 -2 4 -7 -9 -13 23 -43 37 -34 7 3 9 2 4 -2 -10 -12 23 -46 37 -38 6 3 8 3 4 -2 -10 -11 50 -85 78 -96 13 -4 24 -13 24 -19 0 -6 5 -8 12 -4 7 4 8 3 4 -5 -11 -17 14 -43 33 -36 8 3 13 3 9 0 -9 -9 25 -43 36 -37 5 3 6 0 2 -7 -11 -17 14 -43 33 -36 8 3 12 3 9 -1 -4 -4 2 -18 12 -32 11 -13 20 -31 20 -38 0 -8 6 -14 13 -14 6 0 0 -8 -15 -18 -16 -9 -28 -20 -28 -24 0 -5 -6 -8 -14 -8 -7 0 -21 -11 -30 -25 -9 -14 -23 -25 -31 -25 -8 0 -24 -18 -35 -39 -11 -22 -25 -43 -31 -47 -6 -3 -3 6 7 21 l19 28 -28 -18 c-15 -10 -32 -26 -38 -36 -6 -13 -18 -18 -38 -15 -33 4 -117 70 -125 98 -3 13 -9 17 -17 12 -7 -4 -10 -3 -6 3 4 6 -13 29 -38 52 -25 23 -45 48 -45 56 0 9 -11 21 -25 27 -14 6 -25 14 -25 18 0 14 -94 115 -107 114 -7 -1 -10 3 -7 8 8 12 -145 168 -163 168 -7 0 -13 6 -13 14 0 8 -7 17 -15 20 -21 8 -55 -15 -52 -34 1 -9 -6 -15 -18 -15 -12 0 -20 -6 -19 -17 1 -9 -4 -14 -10 -12 -17 7 -80 -62 -71 -77 6 -8 4 -10 -4 -4 -9 5 -32 -12 -67 -46 -30 -29 -54 -57 -54 -61 0 -4 -20 -26 -45 -49 -27 -25 -44 -48 -41 -56 4 -9 1 -11 -5 -7 -7 4 -10 1 -7 -7 3 -8 11 -13 17 -11 7 1 10 -2 6 -8 -5 -8 -11 -8 -20 0 -14 11 -41 -11 -28 -24 4 -4 -1 -4 -10 0 -13 5 -20 1 -24 -14 -3 -12 -16 -28 -29 -37 -13 -8 -24 -22 -24 -30 0 -8 -9 -20 -20 -27 -11 -7 -20 -16 -20 -21 0 -4 5 -5 12 -1 7 4 8 3 4 -5 -4 -6 -12 -9 -17 -6 -5 4 -19 -1 -31 -9 -33 -23 -59 -20 -84 12 -21 25 -24 26 -46 13 -21 -13 -22 -13 -10 2 12 14 10 20 -15 42 -15 14 -43 39 -61 56 -18 17 -40 28 -47 25 -8 -3 -14 0 -12 7 1 7 -3 11 -8 10 -6 -1 -11 14 -11 33 0 19 4 34 10 34 18 0 237 225 234 240 -2 8 3 14 10 15 18 0 63 45 56 56 -3 5 2 6 11 3 12 -5 16 -2 13 11 -2 11 4 19 16 21 26 4 68 45 61 62 -3 7 0 10 6 6 14 -8 61 36 55 53 -8 19 39 -2 71 -31 15 -14 39 -30 55 -37 15 -6 25 -15 22 -20 -3 -5 7 -14 21 -19 33 -13 105 4 105 24 0 8 10 20 23 29 l22 15 -25 26 c-13 15 -30 24 -38 21 -7 -3 -10 0 -6 6 8 14 -77 101 -93 95 -6 -3 -10 1 -7 7 2 7 -14 30 -36 52 -47 45 -51 75 -16 110 15 14 23 33 21 44 -3 14 1 18 12 14 9 -4 11 -8 4 -12z m509 15 c0 -3 -5 -8 -12 -12 -7 -4 -8 -3 -4 4 7 12 16 16 16 8z m17 -23 c-4 -3 -10 -3 -14 0 -3 4 0 7 7 7 7 0 10 -3 7 -7z m-3080 -10 c-4 -3 -10 -3 -14 0 -3 4 0 7 7 7 7 0 10 -3 7 -7z m2618 -13 c3 -5 4 -10 1 -10 -3 0 -8 5 -11 10 -3 6 -4 10 -1 10 3 0 8 -4 11 -10z m325 -34 c0 -3 -5 -8 -12 -12 -7 -4 -8 -3 -4 4 7 12 16 16 16 8z m1534 -5 c3 -4 -4 -7 -14 -6 -27 2 -33 10 -10 12 11 1 22 -2 24 -6z m-3365 -26 c8 0 19 -8 25 -18 9 -15 7 -21 -8 -33 -20 -14 -20 -14 0 -15 65 -5 120 1 204 21 151 35 425 30 498 -9 11 -6 23 -7 27 -3 5 4 5 2 1 -5 -4 -7 2 -17 14 -23 11 -6 20 -8 20 -4 0 3 6 1 14 -6 8 -6 13 -17 10 -25 -3 -7 3 -16 13 -19 10 -3 19 -16 20 -28 1 -11 7 -24 12 -27 6 -4 10 -15 10 -26 0 -11 3 -59 7 -107 6 -71 4 -93 -10 -122 -9 -20 -21 -36 -27 -36 -6 0 -7 -5 -3 -11 4 -8 1 -8 -12 -1 -11 5 -27 8 -37 7 -9 -2 -15 1 -11 6 3 5 2 15 -3 22 -10 16 -13 38 -5 33 8 -4 33 20 27 26 -2 2 4 4 15 4 10 0 18 -3 18 -6 -2 -20 4 -21 17 -4 15 20 21 105 8 118 -4 4 -8 20 -9 36 -1 16 -12 46 -25 67 -22 35 -24 36 -27 15 -2 -13 2 -30 8 -38 10 -11 10 -14 0 -14 -7 0 -10 -7 -6 -15 3 -8 0 -15 -6 -15 -6 0 -16 -7 -23 -17 -16 -21 -31 -11 -39 27 -5 27 -8 30 -25 20 -26 -14 -27 -13 -51 12 -18 19 -18 23 -5 38 14 15 13 19 -5 35 -27 25 -26 29 16 45 32 13 34 16 18 27 -9 7 -27 10 -40 7 -12 -3 -25 -1 -28 5 -8 12 -268 16 -280 4 -3 -4 -26 -8 -51 -9 -25 -1 -51 -6 -57 -11 -20 -15 -106 -36 -122 -30 -8 3 -29 2 -46 -3 -21 -6 -28 -6 -24 2 5 7 1 9 -9 5 -11 -4 -18 1 -22 14 -4 13 -12 18 -21 15 -8 -3 -13 -2 -10 2 3 5 6 25 8 45 1 22 6 33 13 29 5 -4 16 -7 24 -7z m3386 -26 c4 -17 3 -34 -1 -38 -5 -3 -24 -20 -43 -36 -19 -17 -31 -24 -27 -17 5 9 -5 12 -41 12 -26 0 -61 7 -76 15 -15 8 -34 12 -41 9 -8 -3 -17 0 -21 6 -5 8 -10 8 -20 0 -9 -8 -14 -6 -19 6 -5 12 -14 15 -36 11 -16 -4 -32 -2 -35 3 -8 13 -262 13 -269 1 -3 -5 -15 -7 -26 -4 -11 3 -27 0 -35 -7 -9 -7 -18 -10 -22 -7 -3 3 -19 -1 -35 -9 -17 -9 -28 -18 -25 -21 3 -2 14 0 24 5 32 16 82 22 89 10 5 -7 2 -9 -7 -4 -8 4 -3 -2 9 -13 l24 -21 -26 -11 c-25 -12 -33 -29 -19 -42 3 -4 11 1 18 10 9 13 14 13 20 3 5 -8 4 -11 -2 -7 -12 7 -27 -20 -24 -41 3 -18 -22 -24 -53 -12 -23 9 -27 8 -25 -8 6 -67 -30 -70 -66 -5 -21 36 -22 43 -10 60 16 20 19 43 7 43 -15 0 -59 -117 -66 -174 -5 -48 -3 -62 11 -79 10 -11 12 -17 6 -13 -9 5 -13 0 -13 -13 0 -25 15 -28 28 -6 13 25 42 7 42 -25 0 -54 -78 -44 -99 13 -10 27 -8 127 3 145 4 7 8 30 8 52 0 22 7 45 14 51 8 6 14 16 14 21 0 13 80 93 107 107 12 6 46 16 75 22 66 13 346 14 390 1 76 -22 197 -44 213 -38 9 3 15 14 13 24 -4 24 19 52 42 52 12 0 21 -10 25 -31z m-4325 -34 c0 -2 -10 -9 -22 -15 -22 -11 -22 -10 -4 4 21 17 26 19 26 11z m3530 2 c0 -2 -10 -12 -22 -23 l-23 -19 19 23 c18 21 26 27 26 19z m-2363 -34 c-4 -3 -10 -3 -14 0 -3 4 0 7 7 7 7 0 10 -3 7 -7z m1193 3 c0 -2 -8 -10 -17 -17 -16 -13 -17 -12 -4 4 13 16 21 21 21 13z m545 -15 c3 -5 2 -12 -3 -15 -5 -3 -9 1 -9 9 0 17 3 19 12 6z m-468 -74 c0 -8 -6 -14 -14 -14 -9 0 -10 4 -2 14 6 7 12 13 14 13 1 0 2 -6 2 -13z m-886 -24 c13 -16 12 -17 -3 -4 -17 13 -22 21 -14 21 2 0 10 -8 17 -17z m-1290 -30 c13 -16 12 -17 -3 -4 -10 7 -18 15 -18 17 0 8 8 3 21 -13z m4846 0 c-4 -3 -7 0 -7 7 0 7 3 10 7 7 3 -4 3 -10 0 -14z m-2337 3 c0 -3 -5 -8 -12 -12 -7 -4 -8 -3 -4 4 7 12 16 16 16 8z m-1130 -10 c0 -3 -5 -8 -12 -12 -7 -4 -8 -3 -4 4 7 12 16 16 16 8z m116 -26 c0 -12 -4 -16 -9 -11 -5 5 -6 14 -3 20 10 15 12 14 12 -9z m749 -30 c3 -5 4 -10 1 -10 -3 0 -8 5 -11 10 -3 6 -4 10 -1 10 3 0 8 -4 11 -10z m-385 -4 c0 -3 -5 -8 -12 -12 -7 -4 -8 -3 -4 4 7 12 16 16 16 8z m740 -16 c0 -5 -5 -10 -11 -10 -5 0 -7 5 -4 10 3 6 8 10 11 10 2 0 4 -4 4 -10z m-1033 -67 c-4 -3 -7 0 -7 7 0 7 3 10 7 7 3 -4 3 -10 0 -14z m853 -47 c0 -3 -5 -8 -12 -12 -7 -4 -8 -3 -4 4 7 12 16 16 16 8z m-150 -40 c0 -3 -5 -8 -12 -12 -7 -4 -8 -3 -4 4 7 12 16 16 16 8z m230 -40 c0 -3 -5 -8 -12 -12 -7 -4 -8 -3 -4 4 7 12 16 16 16 8z m1775 -34 c-3 -3 -11 0 -18 7 -9 10 -8 11 6 5 10 -3 15 -9 12 -12z m-2110 -41 c3 -5 2 -12 -3 -15 -5 -3 -9 1 -9 9 0 17 3 19 12 6z m-640 -241 c3 -5 4 -10 1 -10 -3 0 -8 5 -11 10 -3 6 -4 10 -1 10 3 0 8 -4 11 -10z m110 -40 c3 -5 4 -10 1 -10 -3 0 -8 5 -11 10 -3 6 -4 10 -1 10 3 0 8 -4 11 -10z m-58 -247 c-4 -3 -10 -3 -14 0 -3 4 0 7 7 7 7 0 10 -3 7 -7z"></path>  <path d="M4313 5814 c-9 -24 13 -40 34 -24 15 12 16 12 6 0 -9 -10 -10 -17 -2 -27 29 -34 54 4 27 39 -19 23 -58 30 -65 12z"></path>  <path d="M4809 5819 c-11 -6 -9 -13 10 -33 32 -34 62 -41 58 -13 -1 12 -6 27 -10 33 -9 16 -42 23 -58 13z m36 -29 c10 -11 16 -20 13 -20 -3 0 -13 9 -23 20 -10 11 -16 20 -13 20 3 0 13 -9 23 -20z"></path>  <path d="M5249 5748 c4 -12 23 -31 42 -41 31 -18 34 -18 46 -1 15 20 9 34 -16 34 -9 0 -21 4 -26 9 -6 5 -20 12 -32 16 -20 6 -22 4 -14 -17z"></path>  <path d="M5980 5818 c1 -16 25 -49 32 -43 3 3 11 -1 18 -10 29 -35 56 0 28 37 -17 22 -78 34 -78 16z"></path>  <path d="M6024 5715 c3 -23 14 -29 31 -15 18 15 11 30 -15 30 -10 0 -17 -6 -16 -15z"></path>  <path d="M3560 5762 c0 -24 14 -44 41 -57 36 -19 53 -19 46 -1 -4 10 -1 13 7 10 8 -3 17 -1 20 4 3 6 -13 17 -36 25 -24 8 -51 18 -60 22 -10 4 -18 3 -18 -3z"></path>  <path d="M3946 5752 c-8 -13 11 -35 23 -28 6 4 9 1 5 -7 -9 -25 28 -30 50 -7 12 12 17 20 11 19 -9 -2 -56 14 -76 26 -4 3 -10 2 -13 -3z"></path>  <path d="M7203 5313 c4 -3 10 -3 14 0 3 4 0 7 -7 7 -7 0 -10 -3 -7 -7z"></path>  <path d="M3061 5286 c-6 -7 -8 -15 -5 -19 3 -3 -3 -14 -14 -25 -35 -35 -67 -217 -67 -382 0 -80 14 -290 20 -300 2 -4 7 -36 10 -71 8 -95 43 -132 110 -115 31 8 48 89 47 216 -7 617 -6 593 -27 649 -21 57 -50 76 -74 47z m-24 -863 c-4 -3 -7 0 -7 7 0 7 3 10 7 7 3 -4 3 -10 0 -14z m38 -33 c3 -5 4 -10 1 -10 -3 0 -8 5 -11 10 -3 6 -4 10 -1 10 3 0 8 -4 11 -10z"></path>  <path d="M4167 3124 c-15 -15 -7 -45 11 -42 9 2 17 12 17 22 0 20 -16 31 -28 20z"></path>  <path d="M5367 3114 c-3 -3 -3 -12 0 -20 4 -11 9 -12 19 -3 8 6 11 15 8 20 -6 10 -18 12 -27 3z"></path>  <path d="M3875 3860 c3 -5 8 -10 11 -10 3 0 2 5 -1 10 -3 6 -8 10 -11 10 -3 0 -2 -4 1 -10z"></path>  <path d="M3742 3851 c-10 -6 -7 -10 12 -13 30 -6 45 7 20 16 -19 7 -16 8 -32 -3z"></path>  <path d="M3773 3790 c-13 -5 -23 -14 -23 -20 0 -16 15 -12 35 10 20 22 20 23 -12 10z"></path>  <path d="M3829 3776 c-1 -9 -2 -20 -3 -26 -1 -5 3 -11 8 -12 13 -4 18 40 6 47 -6 3 -11 -1 -11 -9z"></path>  <path d="M6423 3903 c4 -3 10 -3 14 0 3 4 0 7 -7 7 -7 0 -10 -3 -7 -7z"></path>  <path d="M5750 3850 c-21 -13 -10 -19 23 -13 21 4 25 8 15 14 -16 11 -20 11 -38 -1z"></path>  <path d="M5680 3776 c0 -8 5 -18 10 -21 6 -3 10 3 10 14 0 12 -4 21 -10 21 -5 0 -10 -6 -10 -14z"></path>  <path d="M5742 3779 c2 -6 8 -10 13 -10 5 0 11 4 13 10 2 6 -4 11 -13 11 -9 0 -15 -5 -13 -11z"></path>  <path d="M4410 2599 c0 -5 5 -7 10 -4 6 3 10 8 10 11 0 2 -4 4 -10 4 -5 0 -10 -5 -10 -11z"></path>  </g> </svg>